<?xml version="1.0" encoding="UTF-8"?>
<svg xmlns="http://www.w3.org/2000/svg" viewBox="0 0 1200 630" width="1200" height="630">
  <defs>
    <linearGradient id="g79079" x1="90.45084971874736%" y1="20.61073738537634%" x2="9.549150281252636%" y2="79.38926261462366%">
      <stop offset="0%" stop-color="#D97706"/>
      <stop offset="100%" stop-color="#B45309"/>
    </linearGradient>
  </defs>
  <rect width="1200" height="630" fill="url(#g79079)"/>
  <circle cx="608.5460622794926" cy="285.48787772189826" r="8" fill="rgba(255,255,255,0.2)"/><ellipse cx="608.5460622794926" cy="285.48787772189826" rx="82.8537014592439" ry="40.54328098427504" fill="none" stroke="rgba(255,255,255,0.12)" stroke-width="1.5" transform="rotate(6.103716837242246 608.5460622794926 285.48787772189826)"/><ellipse cx="608.5460622794926" cy="285.48787772189826" rx="104.8698120098561" ry="49.9596781283617" fill="none" stroke="rgba(255,255,255,0.12)" stroke-width="1.5" transform="rotate(78.7717202771455 608.5460622794926 285.48787772189826)"/><ellipse cx="608.5460622794926" cy="285.48787772189826" rx="98.63534241914749" ry="30.62579256016761" fill="none" stroke="rgba(255,255,255,0.12)" stroke-width="1.5" transform="rotate(134.27925052586943 608.5460622794926 285.48787772189826)"/><circle cx="236.63108881529" cy="80" r="3" fill="rgba(255,255,255,0.15)"/><circle cx="165.99188993439282" cy="80" r="3" fill="rgba(255,255,255,0.10)"/><circle cx="184.93751025088326" cy="105" r="3" fill="rgba(255,255,255,0.15)"/><circle cx="218.2111427058867" cy="105" r="3" fill="rgba(255,255,255,0.10)"/><line x1="184.93751025088326" y1="105" x2="218.2111427058867" y2="105" stroke="rgba(255,255,255,0.08)" stroke-width="1"/><circle cx="179.66717203200128" cy="130" r="3" fill="rgba(255,255,255,0.15)"/><circle cx="228.20876353106897" cy="130" r="3" fill="rgba(255,255,255,0.10)"/><circle cx="164.30768692252553" cy="155" r="3" fill="rgba(255,255,255,0.15)"/><circle cx="229.91903858367445" cy="155" r="3" fill="rgba(255,255,255,0.10)"/><line x1="164.30768692252553" y1="155" x2="229.91903858367445" y2="155" stroke="rgba(255,255,255,0.08)" stroke-width="1"/><circle cx="161.24203071747294" cy="180" r="3" fill="rgba(255,255,255,0.15)"/><circle cx="239.848617199748" cy="180" r="3" fill="rgba(255,255,255,0.10)"/><circle cx="168.175729411255" cy="205" r="3" fill="rgba(255,255,255,0.15)"/><circle cx="229.47064177627647" cy="205" r="3" fill="rgba(255,255,255,0.10)"/><line x1="168.175729411255" y1="205" x2="229.47064177627647" y2="205" stroke="rgba(255,255,255,0.08)" stroke-width="1"/><circle cx="206.48627364545422" cy="230" r="3" fill="rgba(255,255,255,0.15)"/><circle cx="209.58198463117972" cy="230" r="3" fill="rgba(255,255,255,0.10)"/><circle cx="214.33806054514335" cy="255" r="3" fill="rgba(255,255,255,0.15)"/><circle cx="165.87730677123204" cy="255" r="3" fill="rgba(255,255,255,0.10)"/><line x1="214.33806054514335" y1="255" x2="165.87730677123204" y2="255" stroke="rgba(255,255,255,0.08)" stroke-width="1"/><circle cx="238.5348608290911" cy="280" r="3" fill="rgba(255,255,255,0.15)"/><circle cx="161.98550060742488" cy="280" r="3" fill="rgba(255,255,255,0.10)"/><circle cx="240.87511459070538" cy="305" r="3" fill="rgba(255,255,255,0.15)"/><circle cx="161.30583389388525" cy="305" r="3" fill="rgba(255,255,255,0.10)"/><line x1="240.87511459070538" y1="305" x2="161.30583389388525" y2="305" stroke="rgba(255,255,255,0.08)" stroke-width="1"/><circle cx="231.5578131201649" cy="330" r="3" fill="rgba(255,255,255,0.15)"/><circle cx="175.4933049463129" cy="330" r="3" fill="rgba(255,255,255,0.10)"/><circle cx="215.24949012400003" cy="355" r="3" fill="rgba(255,255,255,0.15)"/><circle cx="211.2879384040289" cy="355" r="3" fill="rgba(255,255,255,0.10)"/><line x1="215.24949012400003" y1="355" x2="211.2879384040289" y2="355" stroke="rgba(255,255,255,0.08)" stroke-width="1"/><circle cx="177.92428000414935" cy="380" r="3" fill="rgba(255,255,255,0.15)"/><circle cx="225.3918029510496" cy="380" r="3" fill="rgba(255,255,255,0.10)"/><circle cx="169.4827274454795" cy="405" r="3" fill="rgba(255,255,255,0.15)"/><circle cx="239.7275481648114" cy="405" r="3" fill="rgba(255,255,255,0.10)"/><line x1="169.4827274454795" y1="405" x2="239.7275481648114" y2="405" stroke="rgba(255,255,255,0.08)" stroke-width="1"/><circle cx="165.32122269283332" cy="430" r="3" fill="rgba(255,255,255,0.15)"/><circle cx="232.85176400579167" cy="430" r="3" fill="rgba(255,255,255,0.10)"/><circle cx="184.85484908886727" cy="455" r="3" fill="rgba(255,255,255,0.15)"/><circle cx="220.79747298609936" cy="455" r="3" fill="rgba(255,255,255,0.10)"/><line x1="184.85484908886727" y1="455" x2="220.79747298609936" y2="455" stroke="rgba(255,255,255,0.08)" stroke-width="1"/><circle cx="184.1906544450774" cy="480" r="3" fill="rgba(255,255,255,0.15)"/><circle cx="198.48739743477273" cy="480" r="3" fill="rgba(255,255,255,0.10)"/><circle cx="231.6671301088342" cy="505" r="3" fill="rgba(255,255,255,0.15)"/><circle cx="167.3203937598291" cy="505" r="3" fill="rgba(255,255,255,0.10)"/><line x1="231.6671301088342" y1="505" x2="167.3203937598291" y2="505" stroke="rgba(255,255,255,0.08)" stroke-width="1"/><circle cx="241.12306220099507" cy="530" r="3" fill="rgba(255,255,255,0.15)"/><circle cx="167.36648754241688" cy="530" r="3" fill="rgba(255,255,255,0.10)"/><path d="M 1009.6118181850761 306.2757492437959 L 1009.6118181850761 366.2757492437959 L 979.6118181850761 446.2757492437959 A 5 5 0 0 0 984.6118181850761 456.2757492437959 L 1064.6118181850761 456.2757492437959 A 5 5 0 0 0 1069.6118181850761 446.2757492437959 L 1039.6118181850761 366.2757492437959 L 1039.6118181850761 306.2757492437959 Z" fill="rgba(255,255,255,0.06)" stroke="rgba(255,255,255,0.15)" stroke-width="2"/><polygon points="1003.3591404309778,125.19733649562113 1003.3591404309778,163.50521679152735 970.1835429295897,182.65915693948045 937.0079454282017,163.50521679152735 937.0079454282017,125.19733649562114 970.1835429295897,106.04339634766802" fill="none" stroke="rgba(255,255,255,0.17179713942576202)" stroke-width="1.5"/><polygon points="973.9412266604421,272.4247988854768 973.9412266604421,302.9001762176631 947.5487757008523,318.13786488375627 921.1563247412624,302.9001762176631 921.1563247412624,272.4247988854768 947.5487757008523,257.1871102193836" fill="none" stroke="rgba(255,255,255,0.09031673694960773)" stroke-width="1.5"/><polygon points="1021.6453002963875,138.98748901032377 1021.6453002963875,177.74160206026863 988.0832538940012,197.11865858524106 954.521207491615,177.74160206026863 954.521207491615,138.98748901032377 988.0832538940012,119.61043248535134" fill="none" stroke="rgba(255,255,255,0.1689705658890307)" stroke-width="1.5"/>
  <circle cx="206.01995140314102" cy="6.056948702316731" r="2.6686230478808284" fill="rgba(255,255,255,0.05635102920467034)"/><circle cx="899.5362354442477" cy="203.71140486560762" r="2.5685453889891505" fill="rgba(255,255,255,0.0319205683725886)"/><circle cx="490.65409088507295" cy="446.29234668798745" r="1.5861216271296144" fill="rgba(255,255,255,0.03423633486498147)"/><circle cx="1025.3664650022984" cy="352.65917672775686" r="1.812275554984808" fill="rgba(255,255,255,0.0442554240883328)"/><circle cx="196.1692334152758" cy="583.6079690186307" r="1.2981655434705317" fill="rgba(255,255,255,0.060501336895395066)"/><circle cx="983.8195639662445" cy="278.1866944092326" r="2.1614377195946872" fill="rgba(255,255,255,0.06574696538271382)"/><circle cx="583.8183299638331" cy="46.39791738241911" r="2.1380016920156777" fill="rgba(255,255,255,0.056486852369271215)"/><circle cx="605.4465796798468" cy="348.1429583695717" r="2.753353969193995" fill="rgba(255,255,255,0.0424980584718287)"/><circle cx="675.8686403743923" cy="122.20142865786329" r="2.495164197869599" fill="rgba(255,255,255,0.06446681135101244)"/><circle cx="604.8988172784448" cy="375.9519396862015" r="2.5172476270236075" fill="rgba(255,255,255,0.03834320371504873)"/><circle cx="245.9054592065513" cy="467.4364361143671" r="1.0691272476688027" fill="rgba(255,255,255,0.04820825493196025)"/><circle cx="1049.2333492264152" cy="270.54834697628394" r="2.5760805658064783" fill="rgba(255,255,255,0.04665606562746689)"/><circle cx="770.4849952831864" cy="453.8314993889071" r="1.600471768528223" fill="rgba(255,255,255,0.07106647248845548)"/><circle cx="480.41299022734165" cy="536.3624401018023" r="1.6457806280814111" fill="rgba(255,255,255,0.06762943487381562)"/><circle cx="962.6689899712801" cy="28.17634833510965" r="1.893342216964811" fill="rgba(255,255,255,0.04167429625056684)"/><circle cx="953.2041683793068" cy="432.69626391353086" r="1.9940122282132506" fill="rgba(255,255,255,0.04730128546478227)"/><circle cx="385.439776070416" cy="21.059295327868313" r="2.8045186274684966" fill="rgba(255,255,255,0.05084256490925327)"/><circle cx="653.7658383138478" cy="118.74528248095885" r="2.7325550545938313" fill="rgba(255,255,255,0.06127987217158079)"/><circle cx="753.2300448976457" cy="409.91828821599483" r="2.648712031543255" fill="rgba(255,255,255,0.06250453516375273)"/><circle cx="199.7080083936453" cy="11.683571711182594" r="1.1857107155956328" fill="rgba(255,255,255,0.048734060088172555)"/>
  <text x="600" y="335" font-family="system-ui, -apple-system, 'Segoe UI', sans-serif" font-size="58" font-weight="700" fill="rgba(0,0,0,0.15)" text-anchor="middle" letter-spacing="1">CBSE Class 10 Science</text>
  <text x="600" y="332" font-family="system-ui, -apple-system, 'Segoe UI', sans-serif" font-size="58" font-weight="700" fill="white" text-anchor="middle" letter-spacing="1">CBSE Class 10 Science</text>
  <g transform="translate(1140, 575)">
    <rect x="0" y="0" width="40" height="40" rx="8" fill="rgba(255,255,255,0.15)"/>
    <text x="20" y="29" font-family="sans-serif" font-weight="bold" font-size="24" fill="rgba(255,255,255,0.6)" text-anchor="middle">K</text>
  </g>
</svg>